<svg
  version="1.1"
  xmlns="http://www.w3.org/2000/svg"
  x="0"
  y="0"
  viewBox="0 0 512 512"
  xml:space="preserve"
  width="2.5em"
  height="2.5em"
  class="mr-1 text-primary-500">
  <g id="Bone_Fracture">
    <circle cx="256" cy="256" r="256" fill="#dee2e6" />
    <circle cx="256" cy="256" r="74.763" fill="#fd919e" />
    <path
      d="M256 336.763c-44.533 0-80.764-36.23-80.764-80.763s36.23-80.763 80.764-80.763 80.764 36.23 80.764 80.763-36.231 80.763-80.764 80.763zm0-149.526c-37.916 0-68.764 30.847-68.764 68.763s30.848 68.763 68.764 68.763 68.764-30.847 68.764-68.763-30.848-68.763-68.764-68.763z"
      fill="#4c4372"
    />
    <path
      d="m309.268 163.075-68.875 68.875 15.418 15.418 14.645 2.995 15.418 15.418 63.05-63.05h26.975c15.076 0 27.298-12.222 27.298-27.298 0-15.076-12.222-27.298-27.298-27.298h-12.035V136.1c0-15.076-12.222-27.298-27.298-27.298-15.077 0-27.298 12.222-27.298 27.298v26.975zm-106.536 185.85 68.875-68.875-15.418-15.418-14.645-2.995-15.418-15.418-63.05 63.05h-26.975c-15.076 0-27.298 12.222-27.298 27.298 0 15.076 12.222 27.298 27.298 27.298h12.035V375.9c0 15.076 12.222 27.298 27.298 27.298 15.077 0 27.298-12.222 27.298-27.298v-26.975z"
      fill="#d3e6f8"
    />
    <path
      d="M285.875 271.782a5.982 5.982 0 0 1-4.242-1.757l-14.145-14.144-12.879-2.634a5.995 5.995 0 0 1-3.04-1.636l-15.419-15.418a5.997 5.997 0 0 1 0-8.486l67.117-67.118.001-24.489c0-18.361 14.938-33.298 33.298-33.298s33.298 14.938 33.298 33.298v6.035h6.036c18.36 0 33.298 14.938 33.298 33.298s-14.938 33.298-33.298 33.298h-24.49l-61.293 61.293a5.979 5.979 0 0 1-4.242 1.758zm-27.096-29.93 12.879 2.634a5.995 5.995 0 0 1 3.04 1.636l11.177 11.176 58.808-58.808a5.997 5.997 0 0 1 4.242-1.757H375.9c11.744 0 21.298-9.554 21.298-21.298s-9.554-21.298-21.298-21.298h-12.036a6 6 0 0 1-6-6V136.1c0-11.744-9.554-21.298-21.298-21.298s-21.298 9.554-21.298 21.298l-.001 26.975a5.998 5.998 0 0 1-1.758 4.243l-64.632 64.633 9.902 9.901zm50.489-78.777h.01-.01zM175.434 409.198c-18.36 0-33.298-14.938-33.298-33.298v-6.035H136.1c-18.36 0-33.298-14.938-33.298-33.298s14.938-33.298 33.298-33.298h24.49l61.293-61.293a5.999 5.999 0 0 1 8.484 0l14.145 14.144 12.879 2.634a5.995 5.995 0 0 1 3.04 1.636l15.419 15.418a5.997 5.997 0 0 1 0 8.486l-67.117 67.118-.001 24.489c-.001 18.36-14.938 33.297-33.298 33.297zm-39.334-93.93c-11.744 0-21.298 9.554-21.298 21.298s9.554 21.298 21.298 21.298h12.036a6 6 0 0 1 6 6V375.9c0 11.744 9.554 21.298 21.298 21.298s21.298-9.554 21.298-21.298l.001-26.975c0-1.591.632-3.118 1.758-4.243l64.632-64.633-9.901-9.901-12.879-2.634a5.995 5.995 0 0 1-3.04-1.636l-11.177-11.176-58.808 58.808a5.997 5.997 0 0 1-4.242 1.757H136.1z"
      fill="#4c4372"
    />
  </g>
 </svg>
